<mxfile host="app.diagrams.net" agent="Mozilla/5.0 (Windows NT 10.0; Win64; x64) AppleWebKit/537.36 (KHTML, like Gecko) Chrome/128.0.0.0 Safari/537.36" scale="1" border="0" version="24.7.16">
  <diagram id="JIO4U5yVURzNJD8ckPtT" name="Page-1">
    <mxGraphModel dx="882" dy="578" grid="1" gridSize="10" guides="1" tooltips="1" connect="1" arrows="1" fold="1" page="1" pageScale="1" pageWidth="850" pageHeight="1100" math="0" shadow="0">
      <root>
        <mxCell id="0" />
        <mxCell id="1" parent="0" />
        <mxCell id="oydF-h_raNgV6xe0kJm8-17" style="edgeStyle=orthogonalEdgeStyle;rounded=0;orthogonalLoop=1;jettySize=auto;html=1;exitX=1;exitY=0.5;exitDx=0;exitDy=0;" parent="1" source="oydF-h_raNgV6xe0kJm8-1" target="oydF-h_raNgV6xe0kJm8-3" edge="1">
          <mxGeometry relative="1" as="geometry" />
        </mxCell>
        <mxCell id="oydF-h_raNgV6xe0kJm8-1" value="New listings" style="rounded=1;whiteSpace=wrap;html=1;" parent="1" vertex="1">
          <mxGeometry x="80" y="120" width="120" height="60" as="geometry" />
        </mxCell>
        <mxCell id="oydF-h_raNgV6xe0kJm8-2" value="" style="swimlane;startSize=0;" parent="1" vertex="1">
          <mxGeometry x="360" y="80" width="400" height="120" as="geometry" />
        </mxCell>
        <mxCell id="oydF-h_raNgV6xe0kJm8-20" style="edgeStyle=orthogonalEdgeStyle;rounded=0;orthogonalLoop=1;jettySize=auto;html=1;exitX=1;exitY=0.5;exitDx=0;exitDy=0;entryX=0;entryY=0.5;entryDx=0;entryDy=0;" parent="oydF-h_raNgV6xe0kJm8-2" source="oydF-h_raNgV6xe0kJm8-3" target="oydF-h_raNgV6xe0kJm8-4" edge="1">
          <mxGeometry relative="1" as="geometry" />
        </mxCell>
        <mxCell id="oydF-h_raNgV6xe0kJm8-3" value="Model fine-tuning" style="rounded=1;whiteSpace=wrap;html=1;" parent="oydF-h_raNgV6xe0kJm8-2" vertex="1">
          <mxGeometry x="40" y="40" width="120" height="60" as="geometry" />
        </mxCell>
        <mxCell id="oydF-h_raNgV6xe0kJm8-4" value="Trained model" style="rounded=1;whiteSpace=wrap;html=1;" parent="oydF-h_raNgV6xe0kJm8-2" vertex="1">
          <mxGeometry x="240" y="40" width="120" height="60" as="geometry" />
        </mxCell>
        <mxCell id="oydF-h_raNgV6xe0kJm8-18" value="Training pipeline" style="text;html=1;align=center;verticalAlign=middle;whiteSpace=wrap;rounded=0;" parent="oydF-h_raNgV6xe0kJm8-2" vertex="1">
          <mxGeometry x="280" width="120" height="30" as="geometry" />
        </mxCell>
        <mxCell id="oydF-h_raNgV6xe0kJm8-6" value="" style="swimlane;startSize=0;" parent="1" vertex="1">
          <mxGeometry x="360" y="280" width="400" height="240" as="geometry" />
        </mxCell>
        <mxCell id="SVxzRoL_lNVSKU7cxNxw-1" style="edgeStyle=orthogonalEdgeStyle;rounded=0;orthogonalLoop=1;jettySize=auto;html=1;exitX=1;exitY=0.5;exitDx=0;exitDy=0;entryX=0.5;entryY=1;entryDx=0;entryDy=0;" edge="1" parent="oydF-h_raNgV6xe0kJm8-6" source="oydF-h_raNgV6xe0kJm8-7" target="oydF-h_raNgV6xe0kJm8-8">
          <mxGeometry relative="1" as="geometry" />
        </mxCell>
        <mxCell id="oydF-h_raNgV6xe0kJm8-7" value="Listings" style="rounded=1;whiteSpace=wrap;html=1;" parent="oydF-h_raNgV6xe0kJm8-6" vertex="1">
          <mxGeometry x="40" y="40" width="120" height="60" as="geometry" />
        </mxCell>
        <mxCell id="SVxzRoL_lNVSKU7cxNxw-3" style="edgeStyle=orthogonalEdgeStyle;rounded=0;orthogonalLoop=1;jettySize=auto;html=1;exitX=1;exitY=0.5;exitDx=0;exitDy=0;entryX=0.5;entryY=0;entryDx=0;entryDy=0;" edge="1" parent="oydF-h_raNgV6xe0kJm8-6" source="oydF-h_raNgV6xe0kJm8-8" target="oydF-h_raNgV6xe0kJm8-9">
          <mxGeometry relative="1" as="geometry" />
        </mxCell>
        <mxCell id="oydF-h_raNgV6xe0kJm8-8" value="Indexer" style="rounded=1;whiteSpace=wrap;html=1;direction=south;" parent="oydF-h_raNgV6xe0kJm8-6" vertex="1">
          <mxGeometry x="240" y="40" width="120" height="60" as="geometry" />
        </mxCell>
        <mxCell id="oydF-h_raNgV6xe0kJm8-9" value="Index table" style="rounded=1;whiteSpace=wrap;html=1;" parent="oydF-h_raNgV6xe0kJm8-6" vertex="1">
          <mxGeometry x="240" y="160" width="120" height="60" as="geometry" />
        </mxCell>
        <mxCell id="oydF-h_raNgV6xe0kJm8-19" value="Indexing pipeline" style="text;html=1;align=center;verticalAlign=middle;whiteSpace=wrap;rounded=0;" parent="oydF-h_raNgV6xe0kJm8-6" vertex="1">
          <mxGeometry x="280" width="120" height="30" as="geometry" />
        </mxCell>
        <mxCell id="oydF-h_raNgV6xe0kJm8-10" value="" style="swimlane;startSize=0;" parent="1" vertex="1">
          <mxGeometry x="160" y="560" width="600" height="240" as="geometry" />
        </mxCell>
        <mxCell id="SVxzRoL_lNVSKU7cxNxw-11" style="edgeStyle=orthogonalEdgeStyle;rounded=0;orthogonalLoop=1;jettySize=auto;html=1;exitX=1;exitY=0.5;exitDx=0;exitDy=0;entryX=0;entryY=0.5;entryDx=0;entryDy=0;" edge="1" parent="oydF-h_raNgV6xe0kJm8-10" source="oydF-h_raNgV6xe0kJm8-11" target="oydF-h_raNgV6xe0kJm8-13">
          <mxGeometry relative="1" as="geometry" />
        </mxCell>
        <mxCell id="oydF-h_raNgV6xe0kJm8-11" value="Embedding fetcher service" style="rounded=1;whiteSpace=wrap;html=1;" parent="oydF-h_raNgV6xe0kJm8-10" vertex="1">
          <mxGeometry x="40" y="40" width="120" height="60" as="geometry" />
        </mxCell>
        <mxCell id="oydF-h_raNgV6xe0kJm8-31" style="edgeStyle=orthogonalEdgeStyle;rounded=0;orthogonalLoop=1;jettySize=auto;html=1;exitX=0.5;exitY=1;exitDx=0;exitDy=0;" parent="oydF-h_raNgV6xe0kJm8-10" source="oydF-h_raNgV6xe0kJm8-13" target="oydF-h_raNgV6xe0kJm8-14" edge="1">
          <mxGeometry relative="1" as="geometry" />
        </mxCell>
        <mxCell id="oydF-h_raNgV6xe0kJm8-13" value="Nearest neighbor service" style="rounded=1;whiteSpace=wrap;html=1;" parent="oydF-h_raNgV6xe0kJm8-10" vertex="1">
          <mxGeometry x="440" y="40" width="120" height="60" as="geometry" />
        </mxCell>
        <mxCell id="oydF-h_raNgV6xe0kJm8-14" value="Re-ranking service" style="rounded=1;whiteSpace=wrap;html=1;" parent="oydF-h_raNgV6xe0kJm8-10" vertex="1">
          <mxGeometry x="440" y="160" width="120" height="60" as="geometry" />
        </mxCell>
        <mxCell id="oydF-h_raNgV6xe0kJm8-33" value="Prediction pipeline" style="text;html=1;align=center;verticalAlign=middle;whiteSpace=wrap;rounded=0;" parent="oydF-h_raNgV6xe0kJm8-10" vertex="1">
          <mxGeometry x="480" width="120" height="30" as="geometry" />
        </mxCell>
        <mxCell id="SVxzRoL_lNVSKU7cxNxw-9" value="Listing embeddings" style="text;html=1;align=center;verticalAlign=middle;whiteSpace=wrap;rounded=0;" vertex="1" parent="oydF-h_raNgV6xe0kJm8-10">
          <mxGeometry x="240" y="80" width="120" height="40" as="geometry" />
        </mxCell>
        <mxCell id="oydF-h_raNgV6xe0kJm8-15" value="Recommended similar listings" style="rounded=1;whiteSpace=wrap;html=1;" parent="1" vertex="1">
          <mxGeometry x="600" y="840" width="120" height="60" as="geometry" />
        </mxCell>
        <mxCell id="SVxzRoL_lNVSKU7cxNxw-6" style="edgeStyle=orthogonalEdgeStyle;rounded=0;orthogonalLoop=1;jettySize=auto;html=1;exitX=0.5;exitY=0;exitDx=0;exitDy=0;" edge="1" parent="1" source="oydF-h_raNgV6xe0kJm8-16" target="oydF-h_raNgV6xe0kJm8-11">
          <mxGeometry relative="1" as="geometry" />
        </mxCell>
        <mxCell id="oydF-h_raNgV6xe0kJm8-16" value="Currently viewing lust" style="rounded=1;whiteSpace=wrap;html=1;" parent="1" vertex="1">
          <mxGeometry x="200" y="840" width="120" height="60" as="geometry" />
        </mxCell>
        <mxCell id="oydF-h_raNgV6xe0kJm8-27" style="edgeStyle=orthogonalEdgeStyle;rounded=0;orthogonalLoop=1;jettySize=auto;html=1;exitX=0;exitY=0.5;exitDx=0;exitDy=0;entryX=0.75;entryY=0;entryDx=0;entryDy=0;" parent="1" source="oydF-h_raNgV6xe0kJm8-9" target="oydF-h_raNgV6xe0kJm8-11" edge="1">
          <mxGeometry relative="1" as="geometry" />
        </mxCell>
        <mxCell id="oydF-h_raNgV6xe0kJm8-30" style="edgeStyle=orthogonalEdgeStyle;rounded=0;orthogonalLoop=1;jettySize=auto;html=1;exitX=0.5;exitY=1;exitDx=0;exitDy=0;" parent="1" source="oydF-h_raNgV6xe0kJm8-9" target="oydF-h_raNgV6xe0kJm8-13" edge="1">
          <mxGeometry relative="1" as="geometry" />
        </mxCell>
        <mxCell id="oydF-h_raNgV6xe0kJm8-32" style="edgeStyle=orthogonalEdgeStyle;rounded=0;orthogonalLoop=1;jettySize=auto;html=1;exitX=0.5;exitY=1;exitDx=0;exitDy=0;" parent="1" source="oydF-h_raNgV6xe0kJm8-14" target="oydF-h_raNgV6xe0kJm8-15" edge="1">
          <mxGeometry relative="1" as="geometry" />
        </mxCell>
        <mxCell id="SVxzRoL_lNVSKU7cxNxw-4" style="edgeStyle=orthogonalEdgeStyle;rounded=0;orthogonalLoop=1;jettySize=auto;html=1;exitX=0.5;exitY=1;exitDx=0;exitDy=0;" edge="1" parent="1" source="oydF-h_raNgV6xe0kJm8-4" target="oydF-h_raNgV6xe0kJm8-8">
          <mxGeometry relative="1" as="geometry" />
        </mxCell>
        <mxCell id="SVxzRoL_lNVSKU7cxNxw-5" style="edgeStyle=orthogonalEdgeStyle;rounded=0;orthogonalLoop=1;jettySize=auto;html=1;exitX=0;exitY=0.5;exitDx=0;exitDy=0;entryX=0.5;entryY=1;entryDx=0;entryDy=0;" edge="1" parent="1" source="oydF-h_raNgV6xe0kJm8-8" target="oydF-h_raNgV6xe0kJm8-4">
          <mxGeometry relative="1" as="geometry" />
        </mxCell>
        <mxCell id="SVxzRoL_lNVSKU7cxNxw-10" style="edgeStyle=orthogonalEdgeStyle;rounded=0;orthogonalLoop=1;jettySize=auto;html=1;exitX=0;exitY=0.5;exitDx=0;exitDy=0;entryX=0.25;entryY=0;entryDx=0;entryDy=0;" edge="1" parent="1" source="oydF-h_raNgV6xe0kJm8-7" target="oydF-h_raNgV6xe0kJm8-11">
          <mxGeometry relative="1" as="geometry" />
        </mxCell>
      </root>
    </mxGraphModel>
  </diagram>
</mxfile>
